<svg width="404" height="753" viewBox="0 0 404 753" fill="none" xmlns="http://www.w3.org/2000/svg">
<path fill-rule="evenodd" clip-rule="evenodd" d="M0 753C0.0315247 753 0.0630188 753 0.0945435 753C208.03 753 376.595 584.435 376.595 376.5C376.595 168.565 208.03 0 0.0945435 0C0.0630188 0 0.0315247 3.8147e-06 0 1.14441e-05V753Z" fill="#3A61E3"/>
<circle cx="95.5945" cy="141" r="46" fill="#2D4CB5"/>
<circle cx="162.095" cy="271.5" r="25.5" fill="#2D4CB5"/>
<circle cx="141.595" cy="564" r="21" fill="#2D4CB5"/>
<circle cx="254.595" cy="348" r="56" fill="#2D4CB5"/>
<path fill-rule="evenodd" clip-rule="evenodd" d="M0 753C0.0315247 753 0.0630188 753 0.0945435 753C208.03 753 376.595 584.435 376.595 376.5C376.595 259.587 323.305 155.119 239.691 86.063C301.704 153.18 339.595 242.915 339.595 341.5C339.595 536.983 190.614 697.67 0 716.214V753Z" fill="#2D4CB5"/>
<path fill-rule="evenodd" clip-rule="evenodd" d="M0 555.243C20.6527 543.572 34.5945 521.414 34.5945 496C34.5945 470.586 20.6527 448.428 0 436.757V555.243Z" fill="#2D4CB5"/>
<path fill-rule="evenodd" clip-rule="evenodd" d="M0 458.193C11.5245 451.675 23.164 445.024 34.8943 438.252C138.937 378.182 231.125 319.507 296.125 273.069C328.485 249.95 354.849 229.339 372.664 212.772C381.395 204.653 389.255 196.427 394.675 188.579C397.333 184.729 400.438 179.513 402.24 173.349C404.043 167.185 405.47 156.545 399.309 145.873C393.147 135.201 383.219 131.117 376.98 129.596C370.74 128.075 364.67 128.156 360.008 128.533C350.501 129.303 339.447 131.997 328.05 135.499C319.092 138.251 308.981 141.801 297.864 146.068C303.984 153.965 309.797 162.112 315.285 170.492C325.318 166.783 334.235 163.813 341.917 161.638C343.289 161.25 344.621 160.887 345.914 160.55C361.887 156.379 371.742 156.126 374.194 160.373C376.646 164.62 371.499 173.028 359.901 184.776C358.963 185.727 357.982 186.699 356.96 187.693C310.856 232.516 180.086 320.939 20.3943 413.137C13.5621 417.081 6.7624 420.984 0 424.841V458.193ZM347.428 154.872C347.429 154.871 347.426 154.877 347.42 154.889C347.412 154.904 347.398 154.927 347.379 154.96C347.41 154.902 347.427 154.872 347.428 154.872ZM365.576 186.304C365.575 186.304 365.54 186.305 365.475 186.302C365.544 186.301 365.576 186.303 365.576 186.304Z" fill="#3AD9E3"/>
</svg>
