<svg width="382" height="753" viewBox="0 0 382 753" fill="none" xmlns="http://www.w3.org/2000/svg">
<path fill-rule="evenodd" clip-rule="evenodd" d="M382 0.0393562C380.17 0.0131493 378.336 0 376.5 0C168.565 0 0 168.565 0 376.5C0 584.435 168.565 753 376.5 753C378.336 753 380.17 752.987 382 752.961V0.0393562Z" fill="#A4B4E7"/>
<path fill-rule="evenodd" clip-rule="evenodd" d="M382 349.09C378.781 348.376 375.434 348 372 348C346.595 348 326 368.595 326 394C326 419.405 346.595 440 372 440C375.434 440 378.781 439.624 382 438.91V349.09Z" fill="#9AA6CF"/>
<path fill-rule="evenodd" clip-rule="evenodd" d="M382 715.628C368.05 717.195 353.869 718 339.5 718C248.478 718 165.001 685.7 99.9036 631.937C168.688 706.383 267.15 753 376.5 753C378.336 753 380.17 752.987 382 752.961V715.628Z" fill="#9AA6CF"/>
<circle cx="220.5" cy="187.5" r="25.5" fill="#9AA6CF"/>
<circle cx="190" cy="509" r="21" fill="#9AA6CF"/>
<circle cx="291.5" cy="286.5" r="15.5" fill="#9AA6CF"/>
<circle cx="127" cy="339" r="68" fill="#9AA6CF"/>
<circle cx="285" cy="578" r="56" fill="#9AA6CF"/>
</svg>
