<svg width="753" height="753" viewBox="0 0 753 753" fill="none" xmlns="http://www.w3.org/2000/svg">
<circle cx="376.5" cy="376.5" r="376.5" fill="#A4B4E7"/>
<path fill-rule="evenodd" clip-rule="evenodd" d="M339.5 718C547.435 718 716 549.435 716 341.5C716 242.915 678.109 153.18 616.096 86.063C699.711 155.119 753 259.587 753 376.5C753 584.435 584.435 753 376.5 753C267.15 753 168.688 706.382 99.9036 631.937C165.001 685.7 248.478 718 339.5 718Z" fill="#9AA6CF"/>
<circle cx="372" cy="394" r="46" fill="#9AA6CF"/>
<circle cx="220.5" cy="187.5" r="25.5" fill="#9AA6CF"/>
<circle cx="190" cy="509" r="21" fill="#9AA6CF"/>
<circle cx="291.5" cy="286.5" r="15.5" fill="#9AA6CF"/>
<circle cx="127" cy="339" r="68" fill="#9AA6CF"/>
<circle cx="285" cy="578" r="56" fill="#9AA6CF"/>
</svg>
