<svg width="810" height="753" viewBox="0 0 810 753" fill="none" xmlns="http://www.w3.org/2000/svg">
<circle cx="405.5" cy="376.5" r="376.5" fill="#3A61E3"/>
<path fill-rule="evenodd" clip-rule="evenodd" d="M368.5 718C576.435 718 745 549.435 745 341.5C745 242.915 707.109 153.18 645.096 86.063C728.711 155.119 782 259.587 782 376.5C782 584.435 613.435 753 405.5 753C296.15 753 197.688 706.382 128.904 631.937C194.001 685.7 277.478 718 368.5 718Z" fill="#2D4CB5"/>
<circle cx="501" cy="141" r="46" fill="#2D4CB5"/>
<circle cx="567.5" cy="271.5" r="25.5" fill="#2D4CB5"/>
<circle cx="547" cy="564" r="21" fill="#2D4CB5"/>
<circle cx="372" cy="496" r="68" fill="#2D4CB5"/>
<circle cx="660" cy="348" r="56" fill="#2D4CB5"/>
<path fill-rule="evenodd" clip-rule="evenodd" d="M69.3518 546.258C64.8524 537.366 60.6955 528.272 56.8984 518.992C47.1792 526.83 38.6684 534.117 31.5302 540.755C22.7995 548.875 14.9391 557.1 9.5192 564.949C6.86107 568.798 3.75624 574.015 1.95364 580.179C0.151106 586.343 -1.27633 596.982 4.88526 607.655C11.0468 618.327 20.9747 622.41 27.2141 623.931C33.4538 625.452 39.5236 625.372 44.1863 624.994C53.6933 624.225 64.7469 621.53 76.144 618.029C99.399 610.885 130.43 598.358 166.632 581.893C239.348 548.82 336.257 498.321 440.3 438.252C544.343 378.182 636.53 319.507 701.531 273.069C733.891 249.95 760.255 229.339 778.069 212.772C786.8 204.653 794.661 196.427 800.08 188.579C802.738 184.729 805.843 179.513 807.646 173.349C809.449 167.185 810.876 156.545 804.714 145.873C798.553 135.201 788.625 131.117 782.385 129.596C776.146 128.075 770.076 128.156 765.413 128.533C755.906 129.303 744.853 131.997 733.456 135.499C724.498 138.251 714.386 141.801 703.27 146.068C709.39 153.965 715.203 162.112 720.691 170.492C730.723 166.783 739.64 163.813 747.323 161.638C748.694 161.25 750.027 160.887 751.319 160.55C767.293 156.379 777.148 156.126 779.6 160.373C782.052 164.62 776.905 173.028 765.307 184.776C764.368 185.727 763.388 186.699 762.365 187.693C716.261 232.516 585.492 320.939 425.8 413.137C266.108 505.335 124.147 574.374 62.2769 591.889C60.9051 592.278 59.5726 592.641 58.2802 592.978C42.3066 597.148 32.4521 597.402 30 593.155C27.5479 588.908 32.6947 580.5 44.293 568.751C45.2314 567.801 46.212 566.828 47.2343 565.835C53.2202 560.015 60.6334 553.46 69.3518 546.258ZM752.825 154.889C752.831 154.877 752.834 154.871 752.834 154.872C752.833 154.872 752.815 154.902 752.785 154.96C752.804 154.927 752.817 154.904 752.825 154.889ZM38.7195 567.225C38.6537 567.223 38.6193 567.223 38.6185 567.224C38.6181 567.224 38.6275 567.225 38.647 567.225C38.6637 567.226 38.6878 567.226 38.7195 567.225ZM56.7658 598.656C56.7647 598.656 56.78 598.627 56.815 598.568C56.7844 598.626 56.7669 598.656 56.7658 598.656ZM770.981 186.304C770.98 186.304 770.946 186.305 770.88 186.302C770.949 186.301 770.982 186.303 770.981 186.304Z" fill="#3AD9E3"/>
</svg>
