<svg width="340" height="69" viewBox="0 0 340 69" fill="none" xmlns="http://www.w3.org/2000/svg">
<path d="M30.04 68.9601C20.952 68.9601 13.816 66.7521 8.63203 62.3361C3.51203 57.9201 0.952026 51.2961 0.952026 42.4641V3.29605C0.952026 2.59205 1.17603 2.01605 1.62403 1.56805C2.07203 1.05605 2.64803 0.800049 3.35203 0.800049H16.504C17.208 0.800049 17.784 1.05605 18.232 1.56805C18.744 2.01605 19 2.59205 19 3.29605V42.2721C19 46.2401 19.928 49.2161 21.784 51.2001C23.704 53.1841 26.424 54.1761 29.944 54.1761C33.464 54.1761 36.152 53.1841 38.008 51.2001C39.928 49.1521 40.888 46.1761 40.888 42.2721V3.29605C40.888 2.59205 41.112 2.01605 41.56 1.56805C42.072 1.05605 42.68 0.800049 43.384 0.800049H56.44C57.144 0.800049 57.72 1.05605 58.168 1.56805C58.68 2.01605 58.936 2.59205 58.936 3.29605V42.4641C58.936 51.2961 56.376 57.9201 51.256 62.3361C46.136 66.7521 39.064 68.9601 30.04 68.9601Z" fill="#3A61E3"/>
<path d="M72.7158 68.0001C72.0758 68.0001 71.4998 67.7761 70.9878 67.3281C70.5398 66.8161 70.3158 66.2401 70.3158 65.6001V20.576C70.3158 19.8721 70.5398 19.2961 70.9878 18.8481C71.4358 18.3361 72.0118 18.08 72.7158 18.08H84.4278C85.1318 18.08 85.7078 18.3361 86.1558 18.8481C86.6678 19.2961 86.9238 19.8721 86.9238 20.576V24.2241C88.7158 22.2401 90.7958 20.7361 93.1638 19.7121C95.5958 18.6241 98.2838 18.08 101.228 18.08H105.548C106.252 18.08 106.828 18.3041 107.276 18.7521C107.724 19.2001 107.948 19.776 107.948 20.48V30.9441C107.948 31.5841 107.724 32.1601 107.276 32.6721C106.828 33.1201 106.252 33.3441 105.548 33.3441H95.8518C93.2918 33.3441 91.3078 34.048 89.8998 35.4561C88.5558 36.8641 87.8838 38.8481 87.8838 41.4081V65.6001C87.8838 66.3041 87.6278 66.8801 87.1158 67.3281C86.6678 67.7761 86.0918 68.0001 85.3878 68.0001H72.7158Z" fill="#3A61E3"/>
<path d="M128.794 68.9601C125.402 68.9601 122.298 68.3201 119.482 67.0401C116.73 65.6961 114.554 63.8721 112.954 61.5681C111.418 59.2641 110.65 56.7361 110.65 53.9841C110.65 49.6321 112.442 46.112 116.026 43.424C119.674 40.672 124.666 38.7841 131.002 37.7601L142.906 35.9361V34.784C142.906 32.416 142.426 30.6881 141.466 29.6001C140.506 28.5121 138.874 27.9681 136.57 27.9681C135.29 27.9681 134.202 28.1921 133.306 28.6401C132.474 29.0881 131.514 29.7601 130.426 30.6561C129.594 31.3601 128.858 31.8721 128.218 32.1921C127.962 32.6401 127.642 32.8641 127.258 32.8641H116.122C115.482 32.8641 114.938 32.6721 114.49 32.2881C114.106 31.8401 113.946 31.3281 114.01 30.7521C114.074 29.0241 114.938 27.104 116.602 24.9921C118.266 22.816 120.794 20.9601 124.186 19.424C127.578 17.8881 131.77 17.12 136.762 17.12C144.698 17.12 150.586 18.8801 154.426 22.4001C158.266 25.8561 160.186 30.5601 160.186 36.5121V65.6001C160.186 66.2401 159.962 66.8161 159.514 67.3281C159.066 67.7761 158.49 68.0001 157.786 68.0001H145.978C145.338 68.0001 144.762 67.7761 144.25 67.3281C143.802 66.8161 143.578 66.2401 143.578 65.6001V62.2401C142.17 64.2241 140.218 65.8561 137.722 67.1361C135.226 68.3521 132.25 68.9601 128.794 68.9601ZM133.594 57.632C136.41 57.632 138.682 56.7041 140.41 54.8481C142.202 52.9921 143.098 50.3041 143.098 46.784V45.632L135.13 46.9761C129.754 48.0001 127.066 49.9201 127.066 52.7361C127.066 54.2081 127.674 55.3921 128.89 56.2881C130.17 57.1841 131.738 57.632 133.594 57.632Z" fill="#3A61E3"/>
<path d="M173.028 68.0001C172.388 68.0001 171.812 67.7761 171.3 67.3281C170.852 66.8161 170.628 66.2401 170.628 65.6001V20.48C170.628 19.776 170.852 19.2001 171.3 18.7521C171.812 18.3041 172.388 18.08 173.028 18.08H184.836C185.54 18.08 186.116 18.3041 186.564 18.7521C187.012 19.2001 187.236 19.776 187.236 20.48V24.1281C188.964 22.0161 191.172 20.32 193.86 19.04C196.612 17.76 199.748 17.12 203.268 17.12C206.916 17.12 210.148 17.952 212.964 19.6161C215.844 21.2801 218.084 23.7441 219.684 27.0081C221.348 30.2721 222.18 34.2081 222.18 38.8161V65.6001C222.18 66.2401 221.956 66.8161 221.508 67.3281C221.06 67.7761 220.484 68.0001 219.78 68.0001H207.012C206.308 68.0001 205.7 67.7761 205.188 67.3281C204.74 66.8801 204.516 66.3041 204.516 65.6001V39.3921C204.516 36.5121 203.812 34.3041 202.404 32.7681C201.06 31.232 199.076 30.4641 196.452 30.4641C193.892 30.4641 191.876 31.2641 190.404 32.8641C188.932 34.4001 188.196 36.5761 188.196 39.3921V65.6001C188.196 66.2401 187.972 66.8161 187.524 67.3281C187.076 67.7761 186.5 68.0001 185.796 68.0001H173.028Z" fill="#3A61E3"/>
<path d="M251.027 68.9601C245.395 68.9601 240.851 67.0721 237.395 63.2961C233.939 59.5201 232.211 54.1761 232.211 47.2641V20.48C232.211 19.776 232.435 19.2001 232.883 18.7521C233.395 18.3041 233.971 18.08 234.611 18.08H247.379C248.083 18.08 248.659 18.3041 249.107 18.7521C249.619 19.2001 249.875 19.776 249.875 20.48V46.688C249.875 52.64 252.531 55.6161 257.843 55.6161C260.403 55.6161 262.387 54.8481 263.795 53.312C265.267 51.7121 266.003 49.5041 266.003 46.688V20.48C266.003 19.776 266.227 19.2001 266.675 18.7521C267.187 18.3041 267.795 18.08 268.499 18.08H281.171C281.875 18.08 282.451 18.3041 282.899 18.7521C283.347 19.2001 283.571 19.776 283.571 20.48V65.6001C283.571 66.2401 283.347 66.8161 282.899 67.3281C282.451 67.7761 281.875 68.0001 281.171 68.0001H269.459C268.755 68.0001 268.147 67.7761 267.635 67.3281C267.187 66.8801 266.963 66.3041 266.963 65.6001V61.9521C263.635 66.6241 258.323 68.9601 251.027 68.9601Z" fill="#3A61E3"/>
<path d="M315.4 68.9601C310.152 68.9601 305.768 68.2241 302.248 66.7521C298.728 65.2801 296.104 63.5201 294.376 61.4721C292.712 59.4241 291.88 57.5681 291.88 55.9041C291.88 55.2641 292.104 54.752 292.552 54.368C293.064 53.92 293.608 53.6961 294.184 53.6961H305.8C306.184 53.6961 306.504 53.8241 306.76 54.0801C307.848 54.7841 308.456 55.2001 308.584 55.3281C309.8 56.2241 310.92 56.9281 311.944 57.4401C313.032 57.8881 314.312 58.1121 315.784 58.1121C317.512 58.1121 318.92 57.7921 320.008 57.1521C321.16 56.4481 321.736 55.4881 321.736 54.2721C321.736 53.2481 321.416 52.4161 320.776 51.7761C320.2 51.1361 319.048 50.528 317.32 49.952C315.656 49.312 313.096 48.6721 309.64 48.0321C298.568 45.7921 293.032 40.6721 293.032 32.6721C293.032 30.0481 293.864 27.5521 295.528 25.1841C297.256 22.7521 299.752 20.8 303.016 19.328C306.344 17.856 310.312 17.12 314.92 17.12C319.592 17.12 323.624 17.856 327.016 19.328C330.472 20.736 333.096 22.4641 334.888 24.5121C336.68 26.4961 337.576 28.3201 337.576 29.9841C337.576 30.5601 337.352 31.0721 336.904 31.5201C336.52 31.9681 336.04 32.1921 335.464 32.1921H324.904C324.328 32.1921 323.88 32.0641 323.56 31.8081C322.792 31.4241 322.024 30.944 321.256 30.368C320.104 29.6 319.08 29.0241 318.184 28.6401C317.352 28.1921 316.264 27.9681 314.92 27.9681C313.32 27.9681 312.072 28.3201 311.176 29.0241C310.28 29.7281 309.832 30.6241 309.832 31.7121C309.832 32.6721 310.088 33.4721 310.6 34.1121C311.176 34.6881 312.296 35.2641 313.96 35.8401C315.688 36.4161 318.28 37.0241 321.736 37.6641C328.008 38.7521 332.552 40.7041 335.368 43.5201C338.248 46.2721 339.688 49.504 339.688 53.216C339.688 58.016 337.544 61.8561 333.256 64.7361C329.032 67.5521 323.08 68.9601 315.4 68.9601Z" fill="#3A61E3"/>
</svg>
